<?xml version="1.0" encoding="utf-8"?>
<!-- Generator: Adobe Illustrator 23.0.6, SVG Export Plug-In . SVG Version: 6.00 Build 0)  -->
<svg version="1.1" id="Calque_1" xmlns="http://www.w3.org/2000/svg" xmlns:xlink="http://www.w3.org/1999/xlink" x="0px" y="0px"
	 viewBox="0 0 24 24" style="enable-background:new 0 0 24 24;" xml:space="preserve">
<style type="text/css">
	.st0{fill:#010101;}
	.st1{fill:#020202;}
	.st2{fill:#232323;}
	.st3{fill:#141414;}
</style>
<g>
	<path class="st0" d="M14.5,8.3c0,1.2,0,2.3,0,3.5c0,0.6-0.1,0.8-0.7,0.8c-1.2,0-2.3,0-3.5,0c-0.6,0-0.8-0.2-0.7-0.8
		c0-1.2,0-2.4-0.1-3.6C9,9.4,8.9,10.7,8.9,12c0,0.5-0.1,0.9-0.5,1.1c-0.4,0.1-0.9,0.3-0.9-0.4c0-2,0-4.1,0.9-5.9
		c0.3-0.5,0.7-1,1.3-1.1c0.7-0.2,1.2-0.1,1.6,0.6c0.6,1.1,1,1,1.7,0c0.6-0.9,1.6-1,2.4-0.1c0.5,0.6,0.8,1.4,1,2.2
		c0.3,1.3,0.3,2.7,0.4,4c0.1,0.9-0.6,0.7-1,0.7c-0.8,0.1-0.4-0.5-0.4-0.7C15,11,15.1,9.6,14.5,8.3z"/>
	<path class="st1" d="M12,13.8c-0.4,0.2-0.2,0.6-0.2,0.9c0,2.4,0,4.8,0,7.2c0,0.8-0.2,1.5-1.1,1.5c-0.9,0-1.2-0.7-1.1-1.5
		c0-2.7,0-5.5,0-8.2c0-0.6,0.1-0.8,0.7-0.8c1.2,0,2.4,0,3.6,0c0.5,0,0.7,0.1,0.6,0.6c0,2.8,0,5.6,0,8.5c0,0.8-0.2,1.4-1.1,1.4
		c-1,0-1.1-0.7-1.1-1.5c0-2.4,0-4.7,0-7.1C12.2,14.5,12.4,14.1,12,13.8z"/>
	<path class="st0" d="M12.1,0.5c1.3,0,2.2,1,2.1,2.3c0,1.2-1,2.2-2.3,2.2c-1.2,0-2.2-1-2.1-2.3C9.8,1.4,10.8,0.5,12.1,0.5z"/>
	<path class="st2" d="M7.4,14c0-0.3,0-0.7,0.4-0.6C8.3,13.5,9,13.3,9,14.1C9,14.6,8.7,15,8.2,15C7.6,15,7.4,14.5,7.4,14z"/>
	<path class="st3" d="M16.5,13.9c0,0.6-0.1,1-0.7,1.1c-0.5,0-0.7-0.4-0.8-0.9c0-0.8,0.7-0.5,1.1-0.6C16.5,13.3,16.6,13.6,16.5,13.9z
		"/>
</g>
</svg>
