<?xml version="1.0" encoding="iso-8859-1"?>
<!-- Generator: Adobe Illustrator 17.1.0, SVG Export Plug-In . SVG Version: 6.00 Build 0)  -->
<!DOCTYPE svg PUBLIC "-//W3C//DTD SVG 1.1//EN" "http://www.w3.org/Graphics/SVG/1.1/DTD/svg11.dtd">
<svg version="1.1" id="Capa_1" xmlns="http://www.w3.org/2000/svg" xmlns:xlink="http://www.w3.org/1999/xlink" x="0px" y="0px"
	 viewBox="0 0 295.125 295.125" style="enable-background:new 0 0 295.125 295.125;" xml:space="preserve">
<path d="M236.078,132.565c-0.308,0-0.611,0.212-0.918,0.217l-6.977-51.312h8.395c2.358,0,4.58-1.303,5.997-3.189
	c1.416-1.886,1.863-4.426,1.206-6.69l-6.327-21.757c-0.931-3.205-3.866-5.363-7.203-5.363h-33c-4.143,0-7.5,3.357-7.5,7.5
	s3.357,7.5,7.5,7.5h27.367l1.975,7h-6.994c-2.165,0-4.224,0.742-5.648,2.372c-1.424,1.63-2.074,3.699-1.783,5.845l2.914,21.462
	l-91.714,12.87l-2.871-8.611l11.544-4.524c3.357-1.314,5.306-4.796,4.637-8.339c-0.669-3.544-3.765-6.074-7.37-6.074H92.097
	c-5.775,0-10.475,4.661-10.475,10.437c0,8.941,7.266,16.197,16.196,16.197c1.79,0,3.565-0.308,5.276-0.895
	c0.101-0.035,0.199-0.076,0.298-0.114l3.116-1.222l2.407,7.208c-0.048,0.06-0.101,0.114-0.147,0.175L88.39,140.19
	c-8.13-4.677-17.463-7.484-27.416-7.801c-16.888-0.531-32.672,5.89-44.343,17.939c-11.22,11.584-17.115,26.855-16.6,43.003
	c0.99,31.023,26.066,56.101,57.09,57.091c0.646,0.021,1.285,0.031,1.926,0.031c16.129,0,31.192-6.601,42.417-18.189
	c9.008-9.3,14.575-20.795,16.157-33.795h10.328c4.001,7,11.47,11.789,20.012,11.789c12.745,0,23.114-10.26,23.114-23.005
	c0-5.616-2.015-10.715-5.358-14.724l52.055-56.587l2.54,18.764c-24.926,6.917-43.281,29.801-43.281,56.899
	c0,32.56,26.488,59.051,59.048,59.051c32.559,0,59.047-26.487,59.047-59.046C295.125,159.051,268.637,132.565,236.078,132.565z
	 M199.756,113.401l-47.179,51.311c-1.492-0.304-3.036-0.464-4.616-0.464c-2.035,0-4.008,0.267-5.89,0.763l-13.874-41.549
	L199.756,113.401z M114.671,130.314l14.543,43.333c-2.104,2.914-3.549,6.822-4.108,9.822h-7.487
	c-1.716-13-8.015-25.36-17.275-34.434L114.671,130.314z M91.202,160.9c5.751,6.145,9.766,14.569,11.251,22.569H74.127L91.202,160.9z
	 M90.689,221.828c-8.71,8.991-20.475,13.902-33.09,13.493c-23.136-0.738-41.838-19.386-42.576-42.523
	c-0.385-12.052,4.013-23.421,12.382-32.062c8.374-8.645,19.611-13.393,31.643-13.393c0.481,0,0.962,0.015,1.447,0.03
	c6.74,0.215,13.099,1.967,18.752,4.897L60.661,176.84c-0.498-0.051-1.004-0.076-1.515-0.076c-8.195,0-14.863,6.668-14.863,14.864
	c0,8.196,6.668,14.646,14.863,14.646c5.552,0,10.395-2.805,12.947-7.805h30.371C100.988,207.469,96.951,215.364,90.689,221.828z
	 M236.078,235.659c-24.288,0-44.048-19.76-44.048-44.048c0-19.494,12.735-36.061,30.32-41.845l5.777,42.646
	c0.51,3.763,3.728,6.494,7.422,6.494c0.336,0,0.675-0.022,1.017-0.068c4.104-0.557,6.981-4.335,6.426-8.439l-5.799-42.806
	c23.773,0.595,42.932,20.105,42.932,44.019C280.125,215.9,260.365,235.659,236.078,235.659z"/>
<g>
</g>
<g>
</g>
<g>
</g>
<g>
</g>
<g>
</g>
<g>
</g>
<g>
</g>
<g>
</g>
<g>
</g>
<g>
</g>
<g>
</g>
<g>
</g>
<g>
</g>
<g>
</g>
<g>
</g>
</svg>
