<?xml version="1.0" encoding="iso-8859-1"?>
<!-- Generator: Adobe Illustrator 19.0.0, SVG Export Plug-In . SVG Version: 6.00 Build 0)  -->
<svg version="1.1" id="Capa_1" xmlns="http://www.w3.org/2000/svg" xmlns:xlink="http://www.w3.org/1999/xlink" x="0px" y="0px"
	 viewBox="0 0 240 240" style="enable-background:new 0 0 240 240;" xml:space="preserve">
<path d="M229.48,114.711l-9.91-5.04c-4.29-2.178-9.427-7.786-11.229-12.247l-7.352-18.207c-1.271-3.146-3.724-5.987-6.726-7.987
	h18.589c7.375,0,13.147-5.849,13.147-13.224V42.968c0-7.374-5.772-13.737-13.147-13.737H13.964C6.59,29.231,0,35.594,0,42.968
	V168.33c0,7.168,6.422,12.901,13.59,12.901h18.008c0.234,16,13.579,29.538,29.959,29.538c16.381,0,29.727-13.538,29.961-29.538
	h59.033c0.234,16,13.579,29.538,29.959,29.538c16.381,0,29.726-13.538,29.96-29.538h16.609c7.168,0,12.923-5.733,12.923-12.901
	v-36.417C240,125.272,235.401,117.716,229.48,114.711z M128,114.231H34v-47h94V114.231z M155,114.254V83.231h31.745l8.598,30.929
	L155,114.254z"/>
<g>
</g>
<g>
</g>
<g>
</g>
<g>
</g>
<g>
</g>
<g>
</g>
<g>
</g>
<g>
</g>
<g>
</g>
<g>
</g>
<g>
</g>
<g>
</g>
<g>
</g>
<g>
</g>
<g>
</g>
</svg>
