<?xml version="1.0" encoding="utf-8"?>
<!-- Generator: Adobe Illustrator 23.0.6, SVG Export Plug-In . SVG Version: 6.00 Build 0)  -->
<svg version="1.1" id="Calque_1" xmlns="http://www.w3.org/2000/svg" xmlns:xlink="http://www.w3.org/1999/xlink" x="0px" y="0px"
	 viewBox="0 0 24 24" style="enable-background:new 0 0 24 24;" xml:space="preserve">
<style type="text/css">
	.st0{fill:#050505;}
	.st1{fill:#060606;}
	.st2{fill:#1B1B1B;}
	.st3{fill:#2A2A2A;}
	.st4{font-family:'Montserrat-Bold';}
	.st5{font-size:3.6599px;}
</style>
<g>
	<g>
		<path class="st0" d="M14.3,9.1c0.4,1.7-0.2,2.2-1.6,2C12.1,11,11.6,11,11,11c-1.2,0.2-1.7-0.3-1.3-1.7C9,9.9,9.1,10.4,9.1,11
			c0,0.4-0.1,0.7-0.6,0.6c-0.4-0.1-1,0-0.9-0.7c0.2-1.3,0.3-2.7,1.2-3.7c0.6-0.7,1.3-1.7,2.4-0.5C11.8,7.2,12.5,7,13,6.4
			c0.5-0.5,0.9-0.3,1.3-0.1c1.1,0.6,2.3,3.5,2,4.7c-0.1,0.6-0.6,0.5-1,0.6c-0.6,0.2-0.5-0.3-0.5-0.6C14.9,10.4,14.9,9.8,14.3,9.1z"
			/>
		<path class="st1" d="M14.4,15.5c0,0.9,0,1.8,0,2.7c0,0.7-0.1,1.4-1,1.4c-0.9,0-1-0.7-1-1.4c0-1.1,0-2.2,0-3.4c0-0.3,0-0.7-0.4-0.7
			c-0.6-0.1-0.4,0.4-0.4,0.7c0,1.1,0,2.2,0,3.4c0,0.7-0.1,1.4-1,1.4c-0.8,0-1-0.6-1-1.3c0-2,0-4,0-5.9c0-0.6,0.1-0.9,0.8-0.8
			c0,0,0.1,0,0.2,0C14.4,11.4,14.4,11.4,14.4,15.5z"/>
		<path class="st0" d="M12,5.6c-1.4,0-2.5-1.2-2.5-2.5c0-1.3,1.1-2.4,2.4-2.4c1.4,0,2.5,1.1,2.6,2.4C14.5,4.4,13.3,5.6,12,5.6z"/>
		<path class="st2" d="M8.4,13c-0.5,0-0.7-0.3-0.8-0.8c0-0.3,0.2-0.5,0.5-0.4c0.3,0.2,0.9-0.1,1,0.5C9.1,12.8,8.8,13,8.4,13z"/>
		<path class="st3" d="M15.9,11.8c0.4-0.1,0.6,0.2,0.5,0.5c-0.1,0.4-0.3,0.7-0.8,0.7c-0.4,0-0.7-0.3-0.6-0.7
			C15,11.8,15.6,12.1,15.9,11.8z"/>
	</g>
	<text transform="matrix(1 0 0 1 9.5708 23.3185)" class="st4 st5">-12</text>
</g>
</svg>
