<?xml version="1.0" encoding="utf-8"?>
<!-- Generator: Adobe Illustrator 23.1.0, SVG Export Plug-In . SVG Version: 6.00 Build 0)  -->
<svg version="1.1" id="Calque_1" xmlns="http://www.w3.org/2000/svg" xmlns:xlink="http://www.w3.org/1999/xlink" x="0px" y="0px"
	 viewBox="0 0 576.4 295.1" style="enable-background:new 0 0 576.4 295.1;" xml:space="preserve">
<style type="text/css">
	.st0{fill:none;}
	.st1{fill:#CCCBCE;}
	.st2{fill:#1B489D;}
	.st3{fill:#99CE1A;}
	.st4{fill:#F07819;}
	.st5{fill:#5E5E5E;}
	.st6{fill:#5D5D5D;}
	.st7{fill:#5F5F5F;}
	.st8{fill:#9D9D9D;}
	.st9{fill:#9C9C9C;}
	.st10{fill:#9B9B9B;}
	.st11{fill:#9F9F9F;}
	.st12{fill:#9E9E9E;}
	.st13{fill:#626262;}
	.st14{fill:#616161;}
	.st15{fill:#A1A1A1;}
	.st16{fill:#A0A0A0;}
	.st17{fill:#6A6A6A;}
	.st18{fill:#6F6F6F;}
	.st19{fill:#6B6B6B;}
	.st20{fill:#717171;}
	.st21{fill:#797979;}
	.st22{fill:#AFAFAF;}
	.st23{fill:#545454;}
	.st24{fill:#727272;}
	.st25{fill:#707071;}
	.st26{fill:#5C5C5C;}
</style>
<path class="st0" d="M287.3-33c98.6,0,197.3,0,295.9-0.1c3.8,0,4.3,1,4.3,4.4c-0.1,130.5-0.1,260.9,0,391.4c0,3.5-0.6,4.4-4.3,4.4
	C386.1,367,189,367-8.2,367.1c-3.9,0-4.5-1-4.5-4.7c0.1-130.3,0.1-260.6,0-390.9c0-3.6,0.7-4.6,4.5-4.6C90.3-33,188.8-33,287.3-33z"
	/>
<path class="st1" d="M12.5,149.5c0-23.7,0-47.3,0-71c0-1.2,0-2.3,0-3.5c0.3-6.6,0.6-7,7.1-7c25.5,0,51,0,76.5-0.1
	c3.8,0,5.3,0.5,4.5,5c-3.5,19-6.6,38.2-9.8,57.3c-0.6,3.6-0.9,7.8,3.3,9.3c4.3,1.5,7.7-0.5,9.9-4.6c6.1-12,12.6-23.8,21.9-33.6
	c10.7-11.2,23-19.9,38.4-23.6c4.8-1.1,5.2,0.4,5.2,4.4c-0.1,39.3-0.1,78.6-0.1,118c0,7.7-0.4,15.4,0.2,23c0.4,4.5-1.3,4.9-4.9,4.8
	c-19.2-0.1-38.3,0-57.5,0c-29.3,0-58.7,0-88,0c-6.8,0-6.8,0-6.8-7C12.5,197.1,12.5,173.3,12.5,149.5z"/>
<path class="st2" d="M103.3,112.9c2.9-13.8,5.7-27.6,8.6-41.4c0.4-1.9,0.6-3.9,3.5-3.9c15.7,0.1,31.4,0.1,47.3,0.3
	c-26.8,6.6-46.1,22.4-58.4,47C102.5,115,102.9,113.9,103.3,112.9z"/>
<path class="st3" d="M127.3,11c0.3,10.8,3.9,20.3,10.6,28.7c6.8,8.4,16.4,12.3,26.2,16.3c-8.9,0-17.7,0-26.6,0c-3.5,0-7,0-10.5,0
	c-11.7,0-11.5,0.1-8.9-11.5c2.6-11.1,4.9-22.3,7.4-33.5C126.1,10.4,126.7,10.4,127.3,11z"/>
<path class="st4" d="M111.5,18c-2.4,11.4-4.8,22.7-7.1,34.1c-0.5,2.5-1.6,4-4.7,3.9c-15-0.2-30-0.1-45.2-0.4
	c24.1-5.8,43.4-18,54.7-40.8c0.5-0.6,1.2-1.4,1.9-0.7C112.4,15.2,111.9,16.7,111.5,18z"/>
<path class="st5" d="M325.2,208.2c17.8-1.4,15.8,0.3,17.3-15.8c0-0.5,0-1,0.1-1.5c0.1-1.8,0.6-3.5,2.7-3.4c2.3,0.1,2.4,2,2.2,3.7
	c-0.6,4.1-1.4,8.2-1.8,12.3c-0.7,7.3-1.3,14.6-1.9,21.9c-0.2,2.3-0.6,4.9-3.5,4.4c-2.6-0.5-1.8-3-1.5-5c1.8-13.4,1.8-13.4-11.7-12.9
	c-0.5,0-1,0-1.5,0c-9.6,0.8-10-0.9-10.3,10c0,1.7-0.5,3.3-0.7,4.9c-0.2,1.5-0.6,3.5-2.3,3.3c-2-0.2-3-2.1-2.6-4.1
	c0.5-3.1,1.4-6.2,1.8-9.3c1.1-7.9,2.1-15.8,3-23.8c0.2-1.7,0.3-3.7,2.5-3.5c2.3,0.2,2.1,2.3,2,3.9c-0.3,3-0.7,5.9-1.1,8.9
	c-0.8,5.6-0.5,5.9,5.2,5.8C324,208.2,325.2,208.2,325.2,208.2z"/>
<path class="st6" d="M403.7,161.9c15.9-1.2,14.4,0.2,15.6-15.6c0.2-2.1-0.4-5,2.9-4.5c2.8,0.4,2.2,3,1.8,4.9
	c-2.1,10.8-3,21.7-3.5,32.7c-0.1,2.1-0.7,4.3-3.3,4c-2.9-0.3-1.9-2.7-1.7-4.3c0.3-3.5,0.8-6.9,1.2-10.4c0.3-2.4-0.4-3.9-3.2-3.7
	c-5.6,0.4-11.3,0.7-16.9,1.1c-2.1,0.1-3.3,1.1-3.5,3.4c-0.4,3.8-0.9,7.6-1.4,11.4c-0.2,1.4-0.4,3.3-2.5,3c-1.8-0.3-2.2-2-2.1-3.5
	c0.2-2.3,0.8-4.6,1.1-6.9c1.1-8.4,2.1-16.8,3.2-25.2c0.3-2-0.2-5.2,3-4.6c2.5,0.5,2.1,3.3,1.7,5.5c-0.4,2.5-0.8,4.9-1.2,7.4
	c-0.9,5.2-0.4,5.8,4.9,5.6C401.1,162.1,402.4,162,403.7,161.9z"/>
<path class="st6" d="M225.7,143c2.9-0.1,5.6,0.3,8.1,2c2.3,1.6,1.9,3.7,1.1,5.8c-0.4,0.9-1.9,2.2-2.5,0.2c-1.4-4.8-5.2-4-8.6-3.8
	c-3.5,0.2-6.9,1-9.9,3.1c-4.3,3-4.2,6.9,0.5,9.3c3.1,1.6,6.5,2.5,9.8,3.7c2.5,0.9,5.1,1.6,7.2,3.3c3.2,2.5,3.8,5.5,1.1,8.6
	c-6.3,7.2-14.5,9.7-23.7,9.1c-1.8-0.1-3.8-0.7-3.5-3.2c0.4-3.2,2.6-1.7,4.2-1.4c6.5,1.4,12.2-0.7,17.4-4.3c3.7-2.6,3.3-5.2-0.8-6.8
	c-4.2-1.7-8.5-3-12.7-4.6c-4-1.5-6.9-4.3-6.9-8.8c0-4.2,2.7-6.9,6.4-8.8C216.9,144.4,221.2,143.1,225.7,143z"/>
<path class="st5" d="M293.4,174c2.6-4.4,5.2-8.8,7.9-13.1c1.8-2.9,4.2-4.9,7.8-4c3.6,0.9,3.9,4.2,4.5,7.1c0.6,2.9,0.9,5.9,1.4,8.9
	c0.3,2.1,0.7,4.1,3.7,3.5c0.9-0.2,1.7-0.1,1.9,1c0.2,0.9-0.4,1.6-1,2.1c-2.6,2.7-6.9,1.8-7.9-1.8c-1-3.5-1.1-7.2-1.8-10.8
	c-0.4-1.8-0.3-4.3-2.8-4.8s-3.5,1.5-4.5,3.2c-2.7,4.6-5.2,9.3-7.9,13.8c-1.1,1.8-2.4,4.1-4.9,3.2c-2.4-0.9-1.7-3.4-1.5-5.3
	c0.8-5.6,1.5-11.2,1.4-16.9c0-1.9,0.4-4.5,2.9-4.4c2.4,0.1,2.1,2.7,1.9,4.4c-0.5,4.6-1.2,9.2-1.9,13.7
	C292.9,173.9,293.2,174,293.4,174z"/>
<path class="st5" d="M555.9,200.8c1.5,0.8,5.2-1.7,5.4,1.6c0.2,2.8-3.5,2.2-5.7,2.4c-7.8,0.8-7.8,0.7-9.3,8.4
	c-0.5,2.6-1.2,5.2-1.3,7.8c-0.2,4,2,5.4,5.6,3.7c0.9-0.4,1.7-1.1,2.6-1.4c1.5-0.6,2.8-3.7,4.4-1.8c1.4,1.7-1,3.4-2.3,4.7
	c-1.8,1.8-4,3-6.5,3.5c-4.8,1-7.8-1.2-8.2-6.1c-0.4-4.4,1-8.6,1.9-12.8c0.6-3,1-5.3-3.3-4.8c-1.4,0.2-2.7-0.5-2.7-2.2
	c0.1-1.9,1.7-2,2.9-1.8c4.7,0.8,6.2-1.9,6.9-5.8c0.1-0.8,0.2-1.7,0.5-2.4c0.7-1.7,0.5-4.7,3.3-4s1.5,3.2,1,5
	C549.5,201.2,549.5,201.2,555.9,200.8z"/>
<path class="st6" d="M257.9,217.5c-3.3,4.1-5.4,7.5-8.7,9.8c-4.9,3.4-9.3,1.6-10.1-4.2c-1-7.1,2-13.7,3.1-20.6
	c0.2-1.3,1.3-2,2.6-1.7s1.9,1.4,1.7,2.6c-0.2,1.6-0.6,3.3-1.2,4.8c-1.3,3.4-2.3,7-2.4,10.6c-0.1,1.9-0.7,4.3,1.6,5.3
	c2.2,1,3.8-0.8,5.2-2.1c3.8-3.2,6.2-7.3,8-11.8c0.7-1.7,1.1-3.5,1.9-5.1c0.6-1.3,1.4-3.1,3.2-2.5c1.9,0.6,1.3,2.3,0.9,3.8
	c-1.1,4.4-1.8,8.8-1.6,13.3c0.1,2,0.3,4.1,1.5,5.7c1.2,1.5,2,2.9-0.3,4c-2,0.9-3.1-0.5-3.9-2.1C258.2,224.7,258.3,221.6,257.9,217.5
	z"/>
<path class="st7" d="M493.8,218.1c-2.7,3.4-4.9,6.6-8,8.9c-2,1.5-4.3,2.8-6.9,1.6c-2.7-1.2-3.6-3.7-3.8-6.5
	c-0.4-6.8,2.3-13.1,3.2-19.7c0.2-1.1,1-1.7,2.2-1.6c1.4,0.1,2.2,0.9,2.2,2.2s-0.3,2.6-0.6,3.9c-0.6,2.1-1.5,4.1-1.9,6.2
	c-0.7,3.6-3.1,8.9,0.5,10.5c4,1.8,6.9-3.1,9.4-6.3c2.8-3.6,4.1-8,5.9-12.1c0.6-1.3,1.3-3.1,3.1-2.6c1.9,0.6,1.3,2.3,1,3.8
	c-1.5,6.9-3.6,13.9,0.8,20.6c0.7,1-0.1,1.9-1.1,2.3c-2,0.8-3.5-0.3-4-1.9C495,224.8,494.6,221.8,493.8,218.1z"/>
<path class="st5" d="M342.4,154.8c1.7,0.7,5.3-1.6,5.6,1.4c0.3,3.1-3.6,1.9-5.6,2.4c-2.8,0.7-6.9-0.5-8,2.5
	c-1.7,4.9-3.5,10.1-2.6,15.6c0.4,2.6,2.6,2.7,4.7,2c0.9-0.3,1.7-1.1,2.6-1.4c1.7-0.6,3.1-4.1,4.8-2c1.5,1.9-1.5,3.6-2.9,5
	c-1.7,1.6-3.8,2.6-6.2,3c-4.4,0.7-7.1-1.4-7.5-5.8c-0.4-4.2,0.6-8.3,1.7-12.3c0.8-3,1.3-5.8-3.4-5.3c-1.3,0.1-2.2-0.6-2.3-2
	c-0.1-1.6,1.1-2.1,2.3-1.9c6,1.1,6.6-3.2,7.6-7.3c0.5-2.1,0.2-5.7,3.4-5c3.1,0.7,1.5,3.8,0.9,6C336,155.1,336,155.1,342.4,154.8z"/>
<path class="st5" d="M392.7,216.7c3.2-6.1,5.9-11,10.4-14.5c2.5-2,5.3-3,8.2-1c1.6,1.1,2.7,2.7,1.5,4.7s-2.4,0.5-3.7-0.2
	c-2.8-1.6-4.8,0.3-6.5,2.1c-4.9,5.2-8.1,11.2-9.3,18.3c-0.3,1.7-0.3,4-2.8,4c-2.6-0.1-2.3-2.4-2.4-4.1c-0.5-7.3-0.1-14.6,1-21.8
	c0.3-2,1.2-3.9,3.3-3.5c2.6,0.5,1.6,2.6,1.2,4.4C392.9,208.4,391.9,211.8,392.7,216.7z"/>
<path class="st7" d="M516.7,169.7c2.1-3.9,4.2-7.8,7.1-11.1c2.1-2.4,4.6-4.3,8-4.5c2-0.1,3.6,0.7,4.4,2.6c0.5,1.1,0.7,2.3-0.3,3.2
	c-1.6,1.5-2.7-0.2-3.9-0.7c-2-0.8-3.5,0.2-4.9,1.6c-5.5,5.2-8.8,11.6-10.2,19c-0.3,1.7-0.3,4-2.9,3.8c-2.5-0.2-2.2-2.6-2.4-4.3
	c-0.6-7,0.1-13.9,0.9-20.9c0.2-2.1,1.2-4.4,3.6-3.9c2.4,0.5,1.3,2.9,1.1,4.6c-0.6,3.4-1.2,6.8-1.7,10.2
	C515.9,169.5,516.3,169.6,516.7,169.7z"/>
<path class="st5" d="M422.8,230.2c-5.5,0-8.8-3.1-8.5-8.7c0.4-9.1,5-16,12-21.4c2-1.5,4.4-2,6.5-0.3c2.3,1.9,3.2,4.6,2.5,7.6
	c-0.2,0.8-0.6,1.6-1.5,1.8c-1.2,0.2-1.6-0.8-2.1-1.7c-2.5-4.9-4.1-5.1-7.2-0.7c-2.6,3.6-4.9,7.5-5.7,12c-1,5.5,1.3,7.8,6.8,7.1
	c2.9-0.4,5.2-2.1,7.6-3.4c1-0.5,2-1.8,3-0.7c1.1,1.2-0.2,2.2-1,2.9C431.7,227.8,427.8,230.2,422.8,230.2z"/>
<path class="st5" d="M457.6,141.1c-0.8,3.2-2,7.1-3,11.2c-2.1,9.1-2.8,18.4-2,27.7c0.1,1.7,0,3.7-2,4c-2.3,0.4-2.5-1.6-2.6-3.3
	c-0.6-13.7,1.6-27.1,5-40.4c0.4-1.6,1.3-3.3,3.4-3C457.9,137.6,457.4,139.1,457.6,141.1z"/>
<path class="st8" d="M321,264.2c2.5-4.5,6.1-6.7,9.9-10.5c-4,0.3-6.8,0.5-9.5,0.8c-1.8,0.2-3.3-0.2-4.3-1.7c-0.2-0.3-0.2-1.1,0-1.4
	c1.2-1.2,2.5,0,3.7,0.2c4,0.7,7.9-1,11.9-0.7c1.3,0.1,2.9-0.5,3.5,1.2c0.5,1.6-0.9,2.3-2.1,3c-2.1,1.3-4.4,2.3-5.7,4.6
	c1.1,1.8,2.8,0.5,4.1,0.7c6.3,1.1,8.1,5.2,4.5,10.3c-3.1,4.2-13.9,7.5-18.7,5.7c-1.2-0.5-2.9-0.9-2.5-2.6c0.5-1.8,2.1-0.9,3.3-0.6
	c5.5,1.3,10.6,0.8,15-3c1.3-1.1,2.8-2.7,1.9-4.8c-0.8-1.8-2.5-2.4-4.5-2.5C328.2,262.9,325,262.8,321,264.2z"/>
<path class="st9" d="M33.8,271.7c-3.2,5.4-9.5,7.9-14.9,6.2c-3.7-1.2-5.8-3.9-6.1-7.7c-0.7-9,9.4-22.1,18.2-23.8
	c4.7-0.9,8.4,2.6,7,6.8c-0.4,1.2-1,2.4-2.3,2.2c-1.7-0.3-1-1.6-0.9-2.7c0.4-4.2-1.1-5.4-4.7-3.5c-7.6,4-12.9,9.9-14.2,18.7
	c-0.8,5.4,2.9,8.9,8.4,7.9C27.9,275.1,30.6,273.1,33.8,271.7z"/>
<path class="st10" d="M473.3,271.1c1.9-3.4,3.5-6.5,5.3-9.3c1.3-2.1,3-4.2,6-3.8c3.3,0.5,3.2,3.5,3.9,5.7c0.4,1.2,0.6,2.6,0.6,3.9
	c-0.1,3.1,1.1,5.3,4.7,5.9c-4.4,3-6.1,2.5-7-1.7c-0.5-2.4-0.6-4.9-1-7.4c-0.2-1.3-0.6-2.7-2.1-3.1c-1.8-0.5-2.9,0.8-3.6,2.1
	c-1.9,3.3-3.6,6.7-5.5,10c-0.9,1.5-1.5,3.8-3.8,2.9c-1.9-0.7-1.2-2.8-1.1-4.4c0.4-3.5,0.6-6.9,1-10.4c0.2-1.5-0.3-4,1.9-3.8
	c1.8,0.1,0.9,2.4,1,3.8C473.9,264.5,471.6,267.4,473.3,271.1z"/>
<path class="st11" d="M182.8,269.2c-2.1,2.3-3.7,4.6-5.8,6.3c-3.8,3-7.2,1.5-7.6-3.3c-0.5-4.9,1.5-9.5,2.2-14.2
	c0.1-0.9,0.7-1.6,1.7-1.3c1.2,0.4,1.4,1.5,1.1,2.4c-0.8,3-1.8,6-2.5,9.1c-0.4,1.9-1.1,4.2,1.1,5.4c2.1,1.2,3.3-1,4.6-2
	c3.6-2.8,5.1-6.9,6.7-10.9c0.4-1.1,0.7-2.7,2-2.4c1.9,0.5,0.9,2.1,0.7,3.3c-0.8,4.6-1.9,9.1,0.4,13.6c0.4,0.8,0.6,1.7-0.4,2.1
	c-1.1,0.5-2-0.2-2.4-1.2C184,274.1,183.5,271.9,182.8,269.2z"/>
<path class="st12" d="M144.5,249.9c-1.4-0.9-0.9-2.1-1.3-3c-0.4-1.1-0.9-2.2-2.2-2.5c-1.5-0.3-2,1-2.7,1.8c-1.9,2.6-2.4,5.8-2.9,8.9
	c-0.3,1.9,0.7,2.6,2.6,2.7c1.5,0.1,3.2-0.6,4.6,0.6c-0.2,0.4-0.3,0.7-0.5,0.9c-2.2,1.3-5.9-0.6-6.9,1.7c-1.4,3-1.3,6.8-1.7,10.2
	c-0.1,1,0.1,2-0.1,3c-0.3,1.5,1,4.1-1.2,4.2c-2.6,0.1-2-2.6-1.8-4.3c0.4-4.9,0.3-10,0.9-14.6c0.6-4.8,1.8-10.4,4.9-14.8
	c1.8-2.4,4.4-4,7.3-2.4C146.8,244.1,146.4,246.9,144.5,249.9z"/>
<path class="st13" d="M273.1,177.7c1.1-6.9,2.2-13.7,3.3-20.6c0.2-1.3,0.9-2.1,2.3-2.1c1.7,0.1,2.4,1.3,2.2,2.7
	c-0.1,1.6-0.6,3.2-1.1,4.8c-1.6,5-1.9,10-1.8,15.2c0,2,1.8,5.4-1.9,5.6C272.1,183.5,273.9,179.8,273.1,177.7z"/>
<path class="st11" d="M542.2,278c-1.8-0.2-4.3,0.5-4.2-1.9c0.1-2,2.4-0.8,3.8-1.1c0.8-0.1,1.7-0.1,2.5-0.1c2-0.2,4.4-0.5,4.9-2.7
	s-1.9-2.7-3.4-3.6c-2.8-1.6-6.9-2.6-5.9-6.9c1-4.5,5-6.4,9.1-7.6c1.3-0.4,3-0.2,3.3,1.4c0.3,1.8-1.4,1.3-2.4,1.6
	c-1.1,0.3-2.2,0.6-3.3,1c-1.7,0.7-3.4,1.7-3.7,3.7c-0.2,2,1.6,2.8,2.9,3.7c2.7,1.9,7.6,2.6,6.5,7C551,277.4,545.9,277.2,542.2,278z"
	/>
<path class="st12" d="M394.9,268c2.8-4,4.4-7.9,7.9-10.3c1.4-1,2.7-2,4.5-1.5c1.4,0.3,2.8,1.2,2.6,2.6c-0.3,2.3-1.8,1-3,0.6
	c-2.6-0.8-4.1,0.9-5.4,2.6c-2.8,3.9-5.9,7.7-6.1,12.8c-0.1,1.4-0.4,2.9-2.2,2.7c-1.7-0.2-1.6-1.8-1.7-3.1
	c-0.3-5.2,0.3-10.3,0.9-15.4c0.1-1.2,0.5-2.6,1.9-2.4c1.7,0.1,1.1,1.6,1.1,2.7C395.4,261.9,394,264.4,394.9,268z"/>
<path class="st10" d="M441,273.4c3.1-4.9,5.7-9,8.3-13c0.7-1.1,1.5-2.2,2.5-3.1c0.9-0.9,2-2.3,3.3-0.8c1.1,1.2-0.2,2-1.1,2.8
	c-4.6,4.2-7.4,9.7-10.5,15c-0.8,1.3-1.1,3.5-3.2,3.3c-2-0.2-1.5-2.3-1.9-3.6c-1.7-4.7-3.9-9.2-4-14.3c0-1.2-0.6-3.1,1.4-3.1
	c1.8,0,1.6,1.8,1.6,3.1C437.2,264.2,438.9,268.3,441,273.4z"/>
<path class="st14" d="M431,176.4c0.9-5.7,1.8-12.1,2.9-18.5c0.3-1.6,1-3.1,2.8-2.8c2.3,0.3,2.2,2.2,1.7,3.9c-1.8,7.2-4,14.4-2.4,22
	c0.4,1.6-0.8,2.5-2.3,2.5c-1.3,0.1-2.3-0.5-2.4-1.9C431.2,180.1,431.2,178.6,431,176.4z"/>
<path class="st14" d="M494.9,176.7c0.9-6,1.9-12.5,3-19.1c0.3-1.6,1-3,2.9-2.6s2.2,2,1.7,3.5c-2.1,7.4-3.9,14.7-2.6,22.5
	c0.2,1.2-0.6,2.2-2,2.4c-1.6,0.2-2.5-0.5-2.7-2.2C495.2,180,495.1,178.7,494.9,176.7z"/>
<path class="st15" d="M283.4,278c-1.7-0.2-3.8,0.4-3.8-1.7c0-1.9,2-1.2,3.2-1.2c0.8,0,1.7,0.1,2.5-0.1c2.1-0.5,5.1-0.4,5.6-2.6
	c0.6-2.6-2.5-3-4.3-4c-3-1.6-6.1-3.2-5-7.5c0.8-3,7.5-7.4,10.3-6.9c1,0.2,2.1,0.6,2.2,1.7c0,1.3-1.2,1.4-2.2,1.3
	c-1.6-0.1-2.9,0.6-4.2,1.3c-1.6,0.9-3.6,1.6-3.6,3.7c0.1,1.8,1.9,2.5,3.3,3.5c2.7,1.9,7.6,2.5,6.3,7
	C292.1,277.3,287.1,277.2,283.4,278z"/>
<path class="st15" d="M70.2,268.8c2.2-5.2,4.8-8.5,8.1-11.4c2-1.7,4.1-2.3,6.2-0.2c0.6,0.6,1.1,1.3,0.6,2.2
	c-0.4,0.6-1.2,0.7-1.8,0.4c-3-1.9-4.6,0.4-6.3,2.2c-3.4,3.6-5.3,8-6.3,12.8c-0.3,1.3-0.3,2.9-2.2,2.8c-1.5-0.1-1.4-1.9-1.4-2.8
	c-0.5-5.5,0.2-10.9,0.9-16.4c0.1-1.1,0.8-2.4,2.3-1.9c1.3,0.5,0.5,1.6,0.5,2.6C70.6,261.7,69.1,264.4,70.2,268.8z"/>
<path class="st15" d="M90.8,267.3c3.1-2.8,4.6-6.4,7.5-8.9c1.5-1.3,3.1-2.5,5.3-2.4c1.7,0.1,3,1,2.7,2.8c-0.3,1.9-1.7,0.8-2.7,0.5
	c-2-0.6-3.4,0.3-4.8,1.8c-3.7,4-5.8,8.9-7.2,14c-0.3,1,0,2.6-1.8,2.3c-1.1-0.2-1.5-1.3-1.5-2.3c-0.1-5.5-0.3-11,0.7-16.4
	c0.2-1.1,0.5-2.6,2-2.3c1.9,0.3,1.3,1.9,1.1,3.2C91.6,262.1,91.2,264.7,90.8,267.3z"/>
<path class="st12" d="M199,267c2.3-3.7,4.4-6.9,7.3-9.5c1.5-1.4,3.1-1.9,5-1.4c1.2,0.3,2.3,1,2,2.4c-0.3,1.8-1.5,1.3-2.6,0.7
	c-2.1-1-3.4,0.3-4.7,1.6c-4,3.8-6,8.7-7.2,13.9c-0.3,1.1-0.3,2.6-1.9,2.5c-1.5-0.1-1.5-1.5-1.5-2.7c0-5.1-0.4-10.3,0.6-15.4
	c0.2-1.2,0.7-3.1,2.2-2.8c2,0.4,0.7,2,0.6,3.2C198.6,262,197.6,264.3,199,267z"/>
<path class="st16" d="M510.9,262.7c-3.7-6-5-5.9-8.4-0.2c-0.6,1-1,2.1-1.5,3.1c-1.2,2.9-3.3,6.2-0.2,8.7c2.7,2.2,6,0.6,8.8-1.2
	c0.7-0.4,1.3-1.1,2.2-0.7c-1.3,3.5-7.3,6.5-11,5.2c-4.4-1.5-4.9-5.1-4-8.9c1-4.3,3.2-8,6.4-11c1.9-1.8,4-3.7,6.5-2.1
	C511.8,257,512.1,259.6,510.9,262.7z"/>
<path class="st17" d="M292.2,211c2.1,0.2,5.2-0.9,8.3,0.1c1.4,0.4,2.6,1.1,2.3,2.7c-0.3,1.7-1.7,1.1-2.8,1
	c-5.8-0.2-11.5-1.3-17.3-0.2c-1.3,0.3-3,0.2-3.2-1.5c-0.3-2.2,1.8-2.1,3.1-2.1C285.5,210.9,288.3,211,292.2,211z"/>
<path class="st7" d="M369,168.2c-3.2,0-6.3,0-9.5,0c-1,0-2.2,0-2.2-1.4c0-1.2,1-1.7,2-1.7c6.1-0.1,12.3-0.2,18.4-0.1
	c1.4,0,2.8,0.8,2.5,2.4c-0.2,1.5-1.7,1.3-2.8,1.2c-2.8-0.2-5.6-0.4-8.5-0.5C369.1,168.1,369.1,168.1,369,168.2z"/>
<path class="st15" d="M458.3,271.8c0.7-4,1.4-8.6,2.2-13.2c0.2-1,0.5-2.1,1.8-1.9c1.2,0.2,1.5,1.4,1.2,2.4c-1.5,5.5-2.5,11-2,16.7
	c0.1,0.9-0.4,1.8-1.4,1.7c-0.9,0-1.5-0.8-1.6-1.7C458.3,274.7,458.3,273.5,458.3,271.8z"/>
<path class="st18" d="M504.1,146.2c-2.5-0.4-2.5-2.5-2.7-4.2c-0.2-2.4,1.5-3.6,3.6-3.8c1.9-0.2,2.7,0.8,2.6,2.7
	C507.5,143.4,506.5,145.3,504.1,146.2z"/>
<path class="st19" d="M282.1,146.2c-2.4-0.9-2.3-3-2.3-4.6c0.1-2.4,1.7-3.5,4.1-3.3c2,0.2,2.4,1.6,2,3.3
	C285.5,143.7,284.3,145.4,282.1,146.2z"/>
<path class="st20" d="M440,146.2c-2.3-0.7-2.5-2.7-2.5-4.4c-0.1-2.4,1.7-3.5,3.8-3.6c2.4-0.1,2.5,1.6,2.4,3.4
	C443.4,143.9,442.2,145.5,440,146.2z"/>
<path class="st21" d="M531.4,192.2c-0.1,1.7-1,2.8-2.8,2.6c-1.4-0.1-2.5-0.9-2.4-2.5c0.1-1.9,1.7-2.2,3.2-2.3
	C530.9,190,531.5,190.8,531.4,192.2z"/>
<path class="st22" d="M467.5,245.7c-0.3,1.8-0.7,3.4-2.5,3.6c-1.5,0.1-1.7-1.4-1.7-2.5c-0.1-1.6,0.8-2.5,2.3-2.6
	C466.9,244,467.3,244.9,467.5,245.7z"/>
<path class="st23" d="M520.7,193.9c-0.3,1.7-1.4,1.7-2.7,1.5s-2.8-0.5-2.3-2.4c0.3-1.3,1.1-2,2.5-1.7
	C519.7,191.5,520.5,192.4,520.7,193.9z"/>
<path class="st20" d="M156.9,174.2c-1.8,2.7-4.3,3.7-6.9,3.9c-3.1,0.2-3.9,2-3.8,4.7c0.2,4,0,8,0.8,11.9c0.4,1.7,1,4.5-1,4.8
	c-2.8,0.4-2.2-2.8-2.3-4.5c-0.3-3.6-0.3-7.3-0.1-11c0.2-3.4-1-4.7-4.3-3.8c-6.1,1.6-12.2,3.2-18.3,4.7c-4.3,1.1-6.4,3.6-5.7,8.3
	c0.2,1,0.4,2.3-1,3.4c-2.1-0.8-1.7-2.9-1.6-4.5c0.2-3.3-0.7-4.7-4.2-3.1c-1.8,0.8-3.7,2.8-5.9,0.7c-0.8-0.7-1.4-1.6-0.7-2.6
	c1.3-2.1,3.3-3.3,5.8-3.3c3.8,0,5.3-1.6,4.9-5.5c-0.4-3.6-0.1-7.3,0.9-10.9c0.6-2,1.7-3.8,4.2-3.5c2.8,0.4,1.9,2.8,1.8,4.4
	c-0.4,3.4-1.2,6.9-2,10.3c-0.7,2.8-1.3,4.6,3.2,3.7c6.9-1.4,13.6-3.3,20.4-4.9c2.6-0.6,3.3-1.9,3.7-4.4c0.6-4.6,1.7-9.1,2.7-13.7
	c0.2-1.1,0.6-2.3,1.2-3.3c0.8-1.4,1.6-3.4,3.6-2.7c1.6,0.6,1.5,2.6,1.1,4c-0.8,3.2-1.8,6.4-2.9,9.5c-2.8,7.9-2.8,7.9,5.1,6.9
	C155.7,173.9,156,174,156.9,174.2z"/>
<path class="st24" d="M62.8,197.9c-0.9-1.7-1.2-2.1-1.3-2.6c-0.5-2.2,0.9-5.2-1-6.7c-2.1-1.7-4.1,1.4-6.4,1.7
	c-1.4,0.2-2.6,0.5-3.5-0.9c-0.9-1.6-0.4-2.9,1-3.9c0.9-0.6,2.1-1.5,3.1-1.4c6.4,0.4,6.8-3.3,6.4-8.2c-0.2-3.1-0.4-6.3,1-9.3
	c0.9-1.8,2.2-3.2,4.3-2.5c2.1,0.7,1.9,2.6,1.5,4.2c-0.7,3.6-1.7,7.1-2.4,10.7c-0.5,2.3-0.8,3.9,3,3.5c7.3-0.9,14.2-3.6,21.3-5.1
	c2.1-0.4,2.5-1.7,2.8-3.5c0.8-4.6,1.7-9.2,2.7-13.7c0.4-1.6,1-3.2,1.9-4.5c0.7-1,1.5-2.6,3-2.1c1.6,0.5,1,2.3,1,3.5
	c0,5-2.6,9.2-4,13.8c-0.4,1.2-1.6,2.4-0.4,3.6c0.9,0.9,2.2,0.4,3.3,0.1c1.7-0.4,3.4-1.1,5.4-0.3c-2,2.1-4.2,3.5-6.9,3.7
	c-3.7,0.3-4.8,2.5-4.5,5.8c0.3,3.8,0.8,7.6,1,11.4c0.1,1.7,0.8,4.6-1.3,4.8c-2.5,0.2-1.6-2.8-1.7-4.3c-0.3-4-0.3-8-0.1-12
	c0.2-3.2-1-4.3-4-3.6c-6.8,1.5-13.6,3-20.2,5.3c-2.4,0.8-3.9,2.3-4,5.1C64,192.5,63.4,194.5,62.8,197.9z"/>
<path class="st25" d="M54.5,169.7c-0.5,3-1.7,5.6-5.2,6.5c-3.7,0.9-7.2,2.6-10.5,4.5c-3.7,2.2-5.1,5-3.3,9.2
	c0.7,1.7,1.4,3.4,1.9,5.1c1.8,6.8-3.1,14.2-10,15.2c-0.8,0.1-1.3,0-1.7-0.6c-0.4-0.8,0.2-1.2,0.7-1.6c0.5-0.4,1.1-0.8,1.5-1.3
	c6.9-6.4,7.6-10.1,3.6-18.5c-2.8-5.8-2.5-7.2,2.9-10.4c5.7-3.4,12.2-5.1,17-10.2C53.4,165.7,54.3,167.7,54.5,169.7z"/>
<path class="st26" d="M232.7,224.1c-0.1-0.8-0.8-0.9-1.5-0.6c-6.3,2.6-5.7-1.9-5.7-5.6c0-2.1,0.3-4.3,0.6-6.4
	c1.2-8.2,3.3-16.3,5.8-24.2c0.5-1.5,1-3.6-1.1-4.3c-2.4-0.8-3.1,1.2-3.5,3.1c-1,4.5-2.1,9-2.9,13.6c-0.5,2.5-1.2,3.3-3.6,2
	c-3.3-1.7-6.5-0.6-9,1.2c-6.2,4.4-10.3,10.3-11.2,18.1c-0.3,3.1,0.2,6.3,3.1,7.9c2.6,1.5,5.5,0.4,8-1.1c3.6-2.1,6-5.6,9.5-9.3
	c0.2,2.4,0.1,3.7,0.4,5c0.5,2.2,0.5,4.9,3.5,5.4c2.8,0.4,5.1-0.9,7-3C232.5,225.4,232.8,224.7,232.7,224.1z M221.1,211.3
	c-2.4,5.4-5.6,10.2-10.9,13.1c-3.5,1.9-5.5,0.7-5.6-3.8c1.1-5.8,3.9-11.4,9.8-15c1.9-1.1,4.1-1.5,6,0.2
	C222.1,207.4,222,209.4,221.1,211.3z"/>
<path class="st6" d="M379.6,226.7c-5.2-5.8-3.2-12.5-1.7-18.5c1.2-4.7-2.2-5.5-4.1-7.7c-1.9-2.2-4.5-1.3-6.4-0.1
	c-8,4.7-13.1,11.7-14.3,21c-0.9,6.8,3.5,9.4,9.7,6.3c3.5-1.8,5.8-4.9,9.2-7.9c0.7,3.5,0.6,6.4,2.5,8.9c1.1,1.3,2.5,1.7,4,0.8
	C379.5,228.9,380.7,227.9,379.6,226.7z M361.3,224.3c-2.5,0.9-3.8,0.1-4-2.6c-0.4-4.5,6.6-16,10.9-17.7c3.2-1.2,5,0.2,5,3.9
	C373.2,212.8,366.1,222.6,361.3,224.3z"/>
<path class="st5" d="M487.5,180c-5-5.3-3.1-11.5-1.7-17c1.2-4.7-1.3-6.7-4-8.9c-2.6-2.1-5.6-0.6-7.8,1c-6.8,4.7-11.2,11.2-12.8,19.4
	c-0.5,2.6-0.2,5.3,2,6.9c2.3,1.7,5,1,7.5-0.2c3.7-1.7,6-5,9.3-8c0.9,3.4,0.7,6.5,2.7,8.9c1.2,1.5,2.6,1.4,4,0.8
	C488,182.3,488.4,181,487.5,180z M469.3,178c-3.3,1.1-3.6-1.1-3.8-4c1.5-6.2,5-11.9,10.6-15.9c2.8-2,5.1-0.4,5.2,3.1
	C481.5,166.3,474.2,176.5,469.3,178z"/>
<path class="st5" d="M266.1,180.4c-5.1-5.8-3-12.4-1.7-18.5c0.9-4.3-2-5.6-4-7.6c-2-1.9-4.4-1.2-6.5,0c-7.8,4.5-12.5,11.3-14.3,20
	c-0.6,2.7-0.4,5.4,2.1,7.2c2.5,1.7,5.1,0.8,7.6-0.4c3.5-1.6,5.7-4.9,9.1-7.6c1,3.3,0.7,6.1,2.4,8.3c1.3,1.7,2.8,1.8,4.4,1
	C266.2,182.4,266.8,181.2,266.1,180.4z M248,177.9c-2.9,1.1-4.1-0.3-4.2-3c-0.2-4.6,6.7-15.2,11.1-17c3.2-1.3,4.7,0.1,4.6,4
	C259.3,166.9,252.7,176.1,248,177.9z"/>
<path class="st7" d="M527.3,221.9c-2.3,2-5,3.3-8,3.7c-2.6,0.4-4.6-0.7-5.7-3c-1.3-2.7,0.7-3.9,2.7-5c3.4-2,6.7-4.2,9.6-7
	c3.7-3.7,4.7-8,2.4-10.5c-2.1-2.3-7.1-1.7-10.8,1.5c-4.9,4.3-8,9.7-8.9,16.2c-1,7.2,2,11.7,7.7,12.2c7.1,0.6,15.3-5.1,15.8-11.4
	C529.7,219.2,528.7,220.8,527.3,221.9z M520.8,203.5c1.1-0.8,2.8-1.9,4-0.4c1.1,1.4,0.6,3.1-0.6,4.5c-2.7,3-5.8,5.3-10.2,7.6
	C514.8,209.7,517.1,206.1,520.8,203.5z"/>
<path class="st6" d="M462.8,200.6c-4.4-2-10-0.4-13.8,4.2c-3.4,4.2-5.7,9-5.8,11.9c-0.2,10.8,5.4,15.4,12.4,12.6
	c6.9-2.8,11.2-8.1,12.8-15.4C469.6,208.2,467,202.5,462.8,200.6z M456.9,224.4c-2,1.4-4.2,2.2-6.5,1.1c-2.6-1.4-3.1-3.9-2.9-6.5
	c0.5-5.1,2.3-9.6,6-13.2c1.9-1.9,4.3-2.5,6.9-1.4c2.5,1,3.8,3.1,3.9,5.8C464.7,216.4,461.8,220.9,456.9,224.4z"/>
<path class="st6" d="M549,179.2c-2.7,0.3-5.1-0.3-6.1-3.2c-1-2.7,1.2-3.6,3.1-4.8c3.1-2,6.2-4,8.9-6.4c3.8-3.4,4.8-8.1,2.8-10.6
	c-2.1-2.5-6.7-2.1-10.8,1.4c-6.4,5.4-9.5,12.3-8.7,20.7c0.3,2.7,1.4,4.8,3.7,6.2c6.4,3.9,18.1-2,19.4-10.8
	C557,175.2,553.7,178.6,549,179.2z M549.9,157.5c1-0.9,2.7-1.8,4-0.5c1.3,1.3,0.5,2.9-0.3,4c-2.6,3.3-5.8,5.8-10.1,7.4
	C543.8,163.3,546.8,160.3,549.9,157.5z"/>
<path class="st10" d="M249.5,268.6c0.1-1.6,0.3-3.3,0.5-4.9c0.7-6,2.2-11.7,4.1-17.4c0.4-1.1,0.7-2.6-0.8-3c-1.6-0.5-1.8,1-2,2.1
	c-0.7,3.1-1.3,6.1-2,9.2c-0.3,1.5-0.2,2.8-2.6,2.7c-8-0.4-14.4,5.3-15.2,13.4c-0.2,2.3,0.2,4.4,2.1,5.8c2.1,1.5,4.3,0.5,6-0.8
	c2.4-1.8,4.4-3.9,6.7-5.9c2.1,7.7,3.1,8.2,8.3,3.8C249.6,274.7,249.2,272,249.5,268.6z M246.6,264.1c-1.4,3.8-4.1,6.7-7.2,9.2
	c-1.2,1-2.8,1.2-4.2,0.4c-1.2-0.8-0.9-2.1-0.8-3.2c0.5-4.8,3.4-8.1,7.1-10.8c1.5-1.1,3.1-0.9,4.6,0.3
	C247.5,261.2,247.1,262.6,246.6,264.1z"/>
<path class="st10" d="M388,252.6c-1-3.5-3.9-4.4-6.9-5c-3.5-0.8-6.9,0.2-10.3,0.9c-3.5,0.6-7.6,1.2-4.7,6.6c0.4,0.7-0.1,1.9-0.2,2.9
	c-0.7,5.4-1.3,10.9-2,16.3c-0.2,1.4-0.4,3,1.3,3.3c1.6,0.1,1.3-1.6,1.5-2.7c0.2-0.7,0.4-1.4,0.3-2c-0.6-4.7,1.9-6.2,6.2-6.9
	c4.4-0.8,8.7-2.5,11.9-5.9C387.1,258,388.9,255.8,388,252.6z M380.4,260.3c-2.8,1.5-5.7,2.6-8.7,3.4c-2.7,0.7-3.6-0.2-3.4-2.9
	c0.7-9.9,0.3-10.2,10.1-10.9c2.4,0.2,5.8-0.3,6.7,3.2C386,256.7,383.4,258.7,380.4,260.3z"/>
<path class="st12" d="M59.8,274.7c-3.3-3.9-1.6-8.3-1-12.4c0.4-2.6,0.1-4-1.9-5.8c-2.4-2.1-4.5-1.2-6.4-0.1c-6,3.5-8.7,9.3-9.9,14.8
	c-0.2,3,0.5,4.4,2.3,5.1c2.3,1.2,4.2,0,6-1.2c2.9-1.9,6.1-7.8,7.7,1c0.2,1.1,1.5,1.8,2.8,1.1C60.5,276.6,60.6,275.7,59.8,274.7z
	 M55.5,261.2c0,3.9-5.2,11.1-8.7,12.3c-2.9,1-3.8-0.6-3.2-3.1c1.1-4.8,3.8-8.8,7.7-11.9c1-0.8,2.2-0.9,3.3-0.2
	C55.7,259.1,55.5,260.4,55.5,261.2z"/>
<path class="st8" d="M422.8,255.8c-5.6-0.2-11.4,6.8-11.5,14c-0.1,5,1.9,7.7,6.2,7.9c5.4,0.3,12-7.3,12.1-13.8
	C429.7,258.9,427.2,256,422.8,255.8z M419.2,274.6c-1.7,0.5-3.6,0.5-4.3-1.4c-1.5-4.4-0.7-8.6,2.5-12.1c1.7-1.8,3.3-3.9,6.3-2.7
	c2.7,1.3,2.9,3.6,2.9,5.4C426.6,268.6,423,273.6,419.2,274.6z"/>
<path class="st11" d="M117.1,274.7c-2.2,0.6-4.4,0.5-5.6-1.9c-1.3-2.7,0.9-3.6,2.6-4.5c2.8-1.6,5.4-3.4,7.4-5.9
	c1.4-1.8,3-4.1,0.9-6.3c-1.9-2-4.3-1.4-6.4-0.1c-5.1,3-8.6,10.5-7.8,16.3c0.5,3,2.2,4.8,5.1,5.4c4.3,0.8,9.8-2.7,11.7-7.9
	C122.1,271.5,120.1,273.8,117.1,274.7z M117,258.3c0.9-0.5,2-0.7,2.7,0.1c0.9,0.9,0.1,1.8-0.5,2.6c-1.6,2.6-4.2,4.2-8,6.3
	C112.5,262.8,114.1,260.1,117,258.3z"/>
<path class="st16" d="M527.6,274.4c-2.4,0.7-4.8,1-6-1.7s1-3.8,3-4.8c2.8-1.4,5.2-3.4,7.1-6c1.3-1.8,2.5-3.8,0.7-5.8
	c-1.8-2.1-4.2-1.3-6.3-0.1c-5,2.7-8.6,9.8-8,15.6c0.4,4.3,3.1,6.7,7.4,6c4.2-0.7,7.7-2.7,9.3-7.2
	C532.2,271.5,530.2,273.6,527.6,274.4z M528.7,257.5c1,0.1,1.5,0.7,1.5,1.4c0.2,2.1-5.8,7.6-7.6,7.1c-0.4-0.1-0.8-0.6-0.9-1
	C521.3,263,526.7,257.2,528.7,257.5z"/>
<path class="st8" d="M266.8,274.7c-1.9,0.1-3.3-0.5-4-2.3c-0.8-2,0.1-3.1,1.8-4c2.9-1.6,5.7-3.4,7.9-6c1.7-2,3.3-4.3,1-6.6
	c-1.9-1.9-4.4-1.3-6.4,0.2c-5.4,4-8.2,9.4-7.7,16.3c0.2,2.3,1.4,3.7,3.3,4.6c4.8,2.3,11.9-1.5,13.5-7.7
	C273.1,271.9,270.6,274.6,266.8,274.7z M268,258.2c0.9-0.6,2.1-1.5,3.1-0.3c0.9,1,0.3,2.2-0.4,3.1c-2,2.5-4.4,4.4-8.2,6.2
	C263.7,262.9,265.2,260,268,258.2z"/>
<path class="st9" d="M154.4,256.1c-5.7,1.3-11,12.6-8.4,17.8c1.6,3.1,4.1,4.6,7.8,3.5c5.2-1.6,9.9-7.7,9.9-13.1
	C163.7,257.9,160.1,254.7,154.4,256.1z M152.3,276.9c-3.7-0.1-4-2.8-4-5.6c0-5.2,4.4-11.2,8.2-11c3.7,0.2,4.3,3,4.6,5.5
	C161,271.2,156.2,277,152.3,276.9z"/>
</svg>
