<?xml version="1.0" encoding="utf-8"?>
<!-- Generator: Adobe Illustrator 23.0.6, SVG Export Plug-In . SVG Version: 6.00 Build 0)  -->
<svg version="1.1" id="Calque_1" xmlns="http://www.w3.org/2000/svg" xmlns:xlink="http://www.w3.org/1999/xlink" x="0px" y="0px"
	 viewBox="0 0 24 24" style="enable-background:new 0 0 24 24;" xml:space="preserve">
<style type="text/css">
	.st0{fill:#040404;}
	.st1{fill:#050505;}
	.st2{fill:#020202;}
	.st3{fill:#0D0D0D;}
	.st4{fill:#0E0E0E;}
	.st5{font-family:'Montserrat-Bold';}
	.st6{font-size:3.0945px;}
</style>
<g>
	<g>
		<path class="st0" d="M9.4,9.3C8.8,9.3,8.3,9.2,7.6,9.1C7.8,8,8.3,7.1,9.1,6.4c0.6-0.5,1.2-0.8,1.9-0.1c0.4,0.4,1,0.4,1.6,0.2
			c1.4-0.7,2-0.5,2.9,0.8C15.8,7.6,16,8,16.1,8.3c0.3,0.5,0.2,0.9-0.5,0.8c-1.1-0.1-1.2,0.5-1,1.3c0.2,1.3-0.3,1.7-1.6,1.6
			c-0.8-0.1-1.6-0.1-2.4,0c-1.1,0.1-1.3-0.3-1.2-1.3C9.5,10.3,9.4,9.9,9.4,9.3z"/>
		<path class="st1" d="M9.4,16c0.1-1-0.5-2.5,0.2-3.2c0.7-0.6,2.2-0.1,3.4-0.2c1.4-0.2,1.7,0.4,1.6,1.7c-0.1,1.5,0,3.1,0,4.6
			c0,0.8-0.2,1.5-1.1,1.5c-1,0-1.1-0.8-1.1-1.6c0-1.1,0-2.2,0-3.3c0-0.4,0.3-1.1-0.4-1.1c-0.6,0-0.3,0.7-0.4,1c0,1.2,0,2.4,0,3.6
			c0,0.8-0.2,1.4-1.1,1.4c-0.8,0-1-0.6-1-1.3C9.4,18.1,9.4,17.2,9.4,16z"/>
		<path class="st2" d="M14.4,3c0,1.3-1.1,2.3-2.4,2.3c-1.3,0-2.5-1.1-2.4-2.4c0-1.3,1.2-2.4,2.6-2.3C13.4,0.6,14.4,1.6,14.4,3z"/>
		<path class="st3" d="M16.7,11.4c0,0.6,0,0.9,0,1.1c0,0.5-0.3,0.8-0.8,0.8c-0.5,0-0.8-0.3-0.8-0.8c0-0.8,0-1.5-0.2-2.3
			c-0.1-0.6,0.3-0.6,0.7-0.6c0.3,0,0.8-0.3,0.9,0.4C16.6,10.5,16.7,11.1,16.7,11.4z"/>
		<path class="st4" d="M8.9,10.8c0,0.3,0,1,0,1.6c0,0.5-0.1,0.9-0.8,1c-0.6,0-0.8-0.4-0.8-0.9c0-0.7,0.1-1.4,0.1-2.2
			c0-0.5,0.1-0.8,0.7-0.7C8.7,9.7,9.2,9.7,8.9,10.8z"/>
	</g>
	<text transform="matrix(1 0 0 1 9.5327 23.5018)" class="st5 st6">+12</text>
</g>
</svg>
